<mxfile host="app.diagrams.net" modified="2024-06-14T10:26:12.412Z" agent="Mozilla/5.0 (Windows NT 10.0; Win64; x64) AppleWebKit/537.36 (KHTML, like Gecko) Chrome/124.0.0.0 Safari/537.36 OPR/110.0.0.0" etag="ls-lxRHo7QilAcHPeF5O" version="24.5.4" type="github">
  <diagram name="Mongo-Kafka-Connect" id="pW1QRrTwxf4rfVVLLW0t">
    <mxGraphModel dx="1418" dy="732" grid="1" gridSize="10" guides="1" tooltips="1" connect="1" arrows="1" fold="1" page="1" pageScale="1" pageWidth="827" pageHeight="1169" math="0" shadow="0">
      <root>
        <mxCell id="0" />
        <mxCell id="1" parent="0" />
        <mxCell id="Dp9ODg8BCRlP848-DAIP-9" value="" style="rounded=1;whiteSpace=wrap;html=1;dashed=1;" vertex="1" parent="1">
          <mxGeometry x="254" y="165" width="320" height="130" as="geometry" />
        </mxCell>
        <mxCell id="Dp9ODg8BCRlP848-DAIP-1" value="Kafka 1" style="fontColor=#0066CC;verticalAlign=top;verticalLabelPosition=bottom;labelPosition=center;align=center;html=1;outlineConnect=0;fillColor=#CCCCCC;strokeColor=#6881B3;gradientColor=none;gradientDirection=north;strokeWidth=2;shape=mxgraph.networks.desktop_pc;" vertex="1" parent="1">
          <mxGeometry x="294" y="200" width="30" height="60" as="geometry" />
        </mxCell>
        <mxCell id="Dp9ODg8BCRlP848-DAIP-2" value="Kafka 2" style="fontColor=#0066CC;verticalAlign=top;verticalLabelPosition=bottom;labelPosition=center;align=center;html=1;outlineConnect=0;fillColor=#CCCCCC;strokeColor=#6881B3;gradientColor=none;gradientDirection=north;strokeWidth=2;shape=mxgraph.networks.desktop_pc;" vertex="1" parent="1">
          <mxGeometry x="398" y="200" width="30" height="60" as="geometry" />
        </mxCell>
        <mxCell id="Dp9ODg8BCRlP848-DAIP-3" value="kafka 3" style="fontColor=#0066CC;verticalAlign=top;verticalLabelPosition=bottom;labelPosition=center;align=center;html=1;outlineConnect=0;fillColor=#CCCCCC;strokeColor=#6881B3;gradientColor=none;gradientDirection=north;strokeWidth=2;shape=mxgraph.networks.desktop_pc;" vertex="1" parent="1">
          <mxGeometry x="504" y="200" width="30" height="60" as="geometry" />
        </mxCell>
        <mxCell id="Dp9ODg8BCRlP848-DAIP-4" value="Mongodb 01" style="fontColor=#0066CC;verticalAlign=top;verticalLabelPosition=bottom;labelPosition=center;align=center;html=1;outlineConnect=0;fillColor=#CCCCCC;strokeColor=#6881B3;gradientColor=none;gradientDirection=north;strokeWidth=2;shape=mxgraph.networks.storage;" vertex="1" parent="1">
          <mxGeometry x="65" y="230" width="30" height="30" as="geometry" />
        </mxCell>
        <mxCell id="Dp9ODg8BCRlP848-DAIP-5" value="Source" style="text;html=1;align=center;verticalAlign=middle;whiteSpace=wrap;rounded=0;fillColor=#d5e8d4;strokeColor=#82b366;" vertex="1" parent="1">
          <mxGeometry x="50" y="200" width="60" height="30" as="geometry" />
        </mxCell>
        <mxCell id="Dp9ODg8BCRlP848-DAIP-8" value="" style="group" vertex="1" connectable="0" parent="1">
          <mxGeometry x="710" y="200" width="60" height="60" as="geometry" />
        </mxCell>
        <mxCell id="Dp9ODg8BCRlP848-DAIP-6" value="Mongodb 02" style="fontColor=#0066CC;verticalAlign=top;verticalLabelPosition=bottom;labelPosition=center;align=center;html=1;outlineConnect=0;fillColor=#CCCCCC;strokeColor=#6881B3;gradientColor=none;gradientDirection=north;strokeWidth=2;shape=mxgraph.networks.storage;" vertex="1" parent="Dp9ODg8BCRlP848-DAIP-8">
          <mxGeometry x="15" y="30" width="30" height="30" as="geometry" />
        </mxCell>
        <mxCell id="Dp9ODg8BCRlP848-DAIP-7" value="Sink" style="text;html=1;align=center;verticalAlign=middle;whiteSpace=wrap;rounded=0;fillColor=#d5e8d4;strokeColor=#82b366;" vertex="1" parent="Dp9ODg8BCRlP848-DAIP-8">
          <mxGeometry width="60" height="30" as="geometry" />
        </mxCell>
        <mxCell id="Dp9ODg8BCRlP848-DAIP-10" value="" style="shape=image;verticalLabelPosition=bottom;labelBackgroundColor=default;verticalAlign=top;aspect=fixed;imageAspect=0;image=https://static.thenounproject.com/png/1866352-200.png;" vertex="1" parent="1">
          <mxGeometry x="194" y="200" width="60" height="60" as="geometry" />
        </mxCell>
        <mxCell id="Dp9ODg8BCRlP848-DAIP-11" value="" style="shape=image;verticalLabelPosition=bottom;labelBackgroundColor=default;verticalAlign=top;aspect=fixed;imageAspect=0;image=https://static.thenounproject.com/png/1866352-200.png;" vertex="1" parent="1">
          <mxGeometry x="574" y="200" width="60" height="60" as="geometry" />
        </mxCell>
      </root>
    </mxGraphModel>
  </diagram>
</mxfile>
